<svg xmlns="http://www.w3.org/2000/svg" width="96" height="96" viewBox="0 0 32 32" shape-rendering="crispEdges">
  <g>
    <rect fill="#173c91" x="9" y="5" width="14" height="3"/>
    <rect fill="#2b64cf" x="6" y="8" width="20" height="16"/>
    <rect fill="#2b64cf" x="9" y="5" width="14" height="22"/>
    <rect fill="#173c91" x="5" y="12" width="4" height="9"/>
    <rect fill="#173c91" x="23" y="8" width="5" height="6"/>
    <rect fill="#173c91" x="23" y="19" width="5" height="5"/>
    <rect fill="#f0bd82" x="11" y="12" width="10" height="8"/>
    <rect fill="#ffffff" x="12" y="8" width="8" height="5"/>
    <rect fill="#1b6a43" x="17" y="10" width="2" height="3"/>
    <rect fill="#171717" x="20" y="13" width="3" height="2"/>
    <rect fill="#ffffff" x="4" y="6" width="5" height="5"/>
    <rect fill="#ffffff" x="23" y="24" width="5" height="4"/>
    <rect fill="#df2e32" x="6" y="24" width="9" height="4"/>
    <rect fill="#ffffff" x="9" y="24" width="3" height="2"/>
    <rect fill="#df2e32" x="18" y="4" width="10" height="4"/>
    <rect fill="#ffffff" x="21" y="4" width="3" height="2"/>
  </g>
</svg>
